<svg width="456" height="181" viewBox="0 0 456 181" fill="none" xmlns="http://www.w3.org/2000/svg">
<mask id="path-1-inside-1_27_148" fill="white">
<path d="M12 0H44V137H12V0Z"/>
</mask>
<path d="M12 0H44V137H12V0Z" fill="#2E363D"/>
<path d="M12 0V2H44V0V-2H12V0Z" fill="#757575" mask="url(#path-1-inside-1_27_148)"/>
<path d="M13.144 176V166.9H17.07C17.642 166.9 18.149 167.03 18.591 167.29C19.0417 167.55 19.397 167.905 19.657 168.356C19.9257 168.807 20.06 169.314 20.06 169.877C20.06 170.466 19.9257 170.995 19.657 171.463C19.397 171.922 19.0417 172.286 18.591 172.555C18.149 172.824 17.642 172.958 17.07 172.958H15.354V176H13.144ZM15.315 171.021H16.758C16.9487 171.021 17.122 170.973 17.278 170.878C17.434 170.783 17.5597 170.653 17.655 170.488C17.7503 170.323 17.798 170.133 17.798 169.916C17.798 169.691 17.7503 169.5 17.655 169.344C17.5597 169.188 17.434 169.067 17.278 168.98C17.122 168.893 16.9487 168.85 16.758 168.85H15.315V171.021ZM24.6535 176.13C23.9341 176.13 23.2928 175.974 22.7295 175.662C22.1748 175.35 21.7328 174.925 21.4035 174.388C21.0828 173.851 20.9225 173.235 20.9225 172.542C20.9225 171.849 21.0828 171.233 21.4035 170.696C21.7328 170.159 22.1748 169.734 22.7295 169.422C23.2928 169.11 23.9341 168.954 24.6535 168.954C25.3728 168.954 26.0098 169.11 26.5645 169.422C27.1278 169.734 27.5698 170.159 27.8905 170.696C28.2111 171.233 28.3715 171.849 28.3715 172.542C28.3715 173.235 28.2111 173.851 27.8905 174.388C27.5698 174.925 27.1278 175.35 26.5645 175.662C26.0098 175.974 25.3728 176.13 24.6535 176.13ZM24.6535 174.336C24.9655 174.336 25.2428 174.258 25.4855 174.102C25.7281 173.946 25.9188 173.734 26.0575 173.465C26.1961 173.196 26.2611 172.889 26.2525 172.542C26.2611 172.195 26.1961 171.888 26.0575 171.619C25.9188 171.342 25.7281 171.125 25.4855 170.969C25.2428 170.813 24.9655 170.735 24.6535 170.735C24.3415 170.735 24.0598 170.813 23.8085 170.969C23.5658 171.125 23.3751 171.342 23.2365 171.619C23.0978 171.888 23.0328 172.195 23.0415 172.542C23.0328 172.889 23.0978 173.196 23.2365 173.465C23.3751 173.734 23.5658 173.946 23.8085 174.102C24.0598 174.258 24.3415 174.336 24.6535 174.336ZM32.9816 176.13C32.2623 176.13 31.6209 175.974 31.0576 175.662C30.5029 175.35 30.0609 174.925 29.7316 174.388C29.4109 173.851 29.2506 173.235 29.2506 172.542C29.2506 171.849 29.4109 171.233 29.7316 170.696C30.0609 170.159 30.5029 169.734 31.0576 169.422C31.6209 169.11 32.2623 168.954 32.9816 168.954C33.7009 168.954 34.3379 169.11 34.8926 169.422C35.4559 169.734 35.8979 170.159 36.2186 170.696C36.5393 171.233 36.6996 171.849 36.6996 172.542C36.6996 173.235 36.5393 173.851 36.2186 174.388C35.8979 174.925 35.4559 175.35 34.8926 175.662C34.3379 175.974 33.7009 176.13 32.9816 176.13ZM32.9816 174.336C33.2936 174.336 33.5709 174.258 33.8136 174.102C34.0563 173.946 34.2469 173.734 34.3856 173.465C34.5243 173.196 34.5893 172.889 34.5806 172.542C34.5893 172.195 34.5243 171.888 34.3856 171.619C34.2469 171.342 34.0563 171.125 33.8136 170.969C33.5709 170.813 33.2936 170.735 32.9816 170.735C32.6696 170.735 32.3879 170.813 32.1366 170.969C31.8939 171.125 31.7033 171.342 31.5646 171.619C31.4259 171.888 31.3609 172.195 31.3696 172.542C31.3609 172.889 31.4259 173.196 31.5646 173.465C31.7033 173.734 31.8939 173.946 32.1366 174.102C32.3879 174.258 32.6696 174.336 32.9816 174.336ZM38.0597 176V169.097H40.0357L40.1267 171.346L39.7367 170.917C39.8407 170.544 40.0097 170.211 40.2437 169.916C40.4864 169.621 40.7681 169.387 41.0887 169.214C41.4094 169.041 41.7517 168.954 42.1157 168.954C42.2717 168.954 42.4147 168.967 42.5447 168.993C42.6834 169.019 42.8091 169.049 42.9217 169.084L42.3497 171.385C42.2544 171.324 42.1244 171.277 41.9597 171.242C41.8037 171.199 41.6391 171.177 41.4657 171.177C41.2751 171.177 41.0974 171.212 40.9327 171.281C40.7681 171.342 40.6294 171.433 40.5167 171.554C40.4041 171.675 40.3131 171.818 40.2437 171.983C40.1831 172.148 40.1527 172.334 40.1527 172.542V176H38.0597Z" fill="#A1ADBA"/>
<mask id="path-4-inside-2_27_148" fill="white">
<path d="M68 0H95V137H68V0Z"/>
</mask>
<path d="M68 0H95V137H68V0Z" fill="#2E363D"/>
<path d="M68 0V2H95V0V-2H68V0Z" fill="#757575" mask="url(#path-4-inside-2_27_148)"/>
<path d="M69.144 176V166.9H71.354V176H69.144ZM70.171 172.516V170.67H74.877V172.516H70.171ZM70.171 168.85V166.9H75.41V168.85H70.171ZM79.3167 176.117C78.736 176.117 78.216 175.965 77.7567 175.662C77.306 175.35 76.9464 174.925 76.6777 174.388C76.409 173.842 76.2747 173.227 76.2747 172.542C76.2747 171.84 76.409 171.22 76.6777 170.683C76.9464 170.146 77.3147 169.725 77.7827 169.422C78.2507 169.11 78.7837 168.954 79.3817 168.954C79.711 168.954 80.01 169.002 80.2787 169.097C80.556 169.192 80.7987 169.327 81.0067 169.5C81.2147 169.665 81.3924 169.86 81.5397 170.085C81.687 170.302 81.7954 170.536 81.8647 170.787L81.4357 170.735V169.097H83.5027V176H81.3967V174.336L81.8647 174.323C81.7954 174.566 81.6827 174.795 81.5267 175.012C81.3707 175.229 81.18 175.419 80.9547 175.584C80.7294 175.749 80.478 175.879 80.2007 175.974C79.9234 176.069 79.6287 176.117 79.3167 176.117ZM79.8887 174.362C80.2094 174.362 80.4867 174.288 80.7207 174.141C80.9547 173.994 81.1367 173.786 81.2667 173.517C81.3967 173.24 81.4617 172.915 81.4617 172.542C81.4617 172.169 81.3967 171.849 81.2667 171.58C81.1367 171.303 80.9547 171.09 80.7207 170.943C80.4867 170.787 80.2094 170.709 79.8887 170.709C79.5767 170.709 79.3037 170.787 79.0697 170.943C78.8444 171.09 78.6667 171.303 78.5367 171.58C78.4067 171.849 78.3417 172.169 78.3417 172.542C78.3417 172.915 78.4067 173.24 78.5367 173.517C78.6667 173.786 78.8444 173.994 79.0697 174.141C79.3037 174.288 79.5767 174.362 79.8887 174.362ZM85.455 176V169.097H87.535V176H85.455ZM86.495 167.732C86.105 167.732 85.7974 167.641 85.572 167.459C85.3554 167.268 85.247 167 85.247 166.653C85.247 166.341 85.3597 166.085 85.585 165.886C85.8104 165.687 86.1137 165.587 86.495 165.587C86.885 165.587 87.1884 165.682 87.405 165.873C87.6217 166.055 87.73 166.315 87.73 166.653C87.73 166.974 87.6174 167.234 87.392 167.433C87.1754 167.632 86.8764 167.732 86.495 167.732ZM89.4894 176V169.097H91.4654L91.5564 171.346L91.1664 170.917C91.2704 170.544 91.4394 170.211 91.6734 169.916C91.9161 169.621 92.1977 169.387 92.5184 169.214C92.8391 169.041 93.1814 168.954 93.5454 168.954C93.7014 168.954 93.8444 168.967 93.9744 168.993C94.1131 169.019 94.2387 169.049 94.3514 169.084L93.7794 171.385C93.6841 171.324 93.5541 171.277 93.3894 171.242C93.2334 171.199 93.0687 171.177 92.8954 171.177C92.7047 171.177 92.5271 171.212 92.3624 171.281C92.1977 171.342 92.0591 171.433 91.9464 171.554C91.8337 171.675 91.7427 171.818 91.6734 171.983C91.6127 172.148 91.5824 172.334 91.5824 172.542V176H89.4894Z" fill="#A1ADBA"/>
<mask id="path-7-inside-3_27_148" fill="white">
<path d="M119 0H155V137H119V0Z"/>
</mask>
<path d="M119 0H155V137H119V0Z" fill="#2E363D"/>
<path d="M119 0V2H155V0V-2H119V0Z" fill="#757575" mask="url(#path-7-inside-3_27_148)"/>
<path d="M124.369 176.13C123.641 176.13 122.982 176.013 122.393 175.779C121.804 175.545 121.297 175.216 120.872 174.791C120.447 174.366 120.122 173.868 119.897 173.296C119.672 172.715 119.559 172.087 119.559 171.411C119.559 170.735 119.676 170.115 119.91 169.552C120.153 168.98 120.495 168.482 120.937 168.057C121.379 167.632 121.899 167.303 122.497 167.069C123.104 166.835 123.762 166.718 124.473 166.718C124.976 166.718 125.448 166.783 125.89 166.913C126.341 167.043 126.748 167.221 127.112 167.446C127.476 167.671 127.784 167.931 128.035 168.226L126.696 169.643C126.479 169.435 126.254 169.262 126.02 169.123C125.795 168.984 125.552 168.876 125.292 168.798C125.032 168.711 124.755 168.668 124.46 168.668C124.079 168.668 123.728 168.737 123.407 168.876C123.095 169.015 122.818 169.21 122.575 169.461C122.341 169.704 122.159 169.994 122.029 170.332C121.899 170.661 121.834 171.021 121.834 171.411C121.834 171.801 121.903 172.165 122.042 172.503C122.181 172.841 122.371 173.136 122.614 173.387C122.857 173.63 123.143 173.825 123.472 173.972C123.81 174.111 124.17 174.18 124.551 174.18C124.82 174.18 125.071 174.137 125.305 174.05C125.548 173.963 125.756 173.846 125.929 173.699C126.102 173.552 126.241 173.378 126.345 173.179C126.449 172.971 126.501 172.75 126.501 172.516V172.178L126.787 172.62H124.278V170.891H128.555C128.572 170.986 128.585 171.116 128.594 171.281C128.603 171.446 128.607 171.606 128.607 171.762C128.616 171.918 128.62 172.035 128.62 172.113C128.62 172.702 128.512 173.244 128.295 173.738C128.087 174.223 127.792 174.644 127.411 174.999C127.03 175.354 126.579 175.632 126.059 175.831C125.539 176.03 124.976 176.13 124.369 176.13ZM133.342 176.13C132.623 176.13 131.981 175.974 131.418 175.662C130.863 175.35 130.421 174.925 130.092 174.388C129.771 173.851 129.611 173.235 129.611 172.542C129.611 171.849 129.771 171.233 130.092 170.696C130.421 170.159 130.863 169.734 131.418 169.422C131.981 169.11 132.623 168.954 133.342 168.954C134.061 168.954 134.698 169.11 135.253 169.422C135.816 169.734 136.258 170.159 136.579 170.696C136.9 171.233 137.06 171.849 137.06 172.542C137.06 173.235 136.9 173.851 136.579 174.388C136.258 174.925 135.816 175.35 135.253 175.662C134.698 175.974 134.061 176.13 133.342 176.13ZM133.342 174.336C133.654 174.336 133.931 174.258 134.174 174.102C134.417 173.946 134.607 173.734 134.746 173.465C134.885 173.196 134.95 172.889 134.941 172.542C134.95 172.195 134.885 171.888 134.746 171.619C134.607 171.342 134.417 171.125 134.174 170.969C133.931 170.813 133.654 170.735 133.342 170.735C133.03 170.735 132.748 170.813 132.497 170.969C132.254 171.125 132.064 171.342 131.925 171.619C131.786 171.888 131.721 172.195 131.73 172.542C131.721 172.889 131.786 173.196 131.925 173.465C132.064 173.734 132.254 173.946 132.497 174.102C132.748 174.258 133.03 174.336 133.342 174.336ZM141.67 176.13C140.951 176.13 140.309 175.974 139.746 175.662C139.191 175.35 138.749 174.925 138.42 174.388C138.099 173.851 137.939 173.235 137.939 172.542C137.939 171.849 138.099 171.233 138.42 170.696C138.749 170.159 139.191 169.734 139.746 169.422C140.309 169.11 140.951 168.954 141.67 168.954C142.389 168.954 143.026 169.11 143.581 169.422C144.144 169.734 144.586 170.159 144.907 170.696C145.228 171.233 145.388 171.849 145.388 172.542C145.388 173.235 145.228 173.851 144.907 174.388C144.586 174.925 144.144 175.35 143.581 175.662C143.026 175.974 142.389 176.13 141.67 176.13ZM141.67 174.336C141.982 174.336 142.259 174.258 142.502 174.102C142.745 173.946 142.935 173.734 143.074 173.465C143.213 173.196 143.278 172.889 143.269 172.542C143.278 172.195 143.213 171.888 143.074 171.619C142.935 171.342 142.745 171.125 142.502 170.969C142.259 170.813 141.982 170.735 141.67 170.735C141.358 170.735 141.076 170.813 140.825 170.969C140.582 171.125 140.392 171.342 140.253 171.619C140.114 171.888 140.049 172.195 140.058 172.542C140.049 172.889 140.114 173.196 140.253 173.465C140.392 173.734 140.582 173.946 140.825 174.102C141.076 174.258 141.358 174.336 141.67 174.336ZM149.361 176.143C148.763 176.143 148.23 175.991 147.762 175.688C147.303 175.376 146.939 174.951 146.67 174.414C146.402 173.868 146.267 173.248 146.267 172.555C146.267 171.862 146.402 171.246 146.67 170.709C146.939 170.163 147.307 169.734 147.775 169.422C148.243 169.11 148.781 168.954 149.387 168.954C149.699 168.954 149.998 169.002 150.284 169.097C150.57 169.192 150.83 169.322 151.064 169.487C151.298 169.652 151.489 169.842 151.636 170.059C151.784 170.267 151.87 170.484 151.896 170.709L151.402 170.826V166.38H153.495V176H151.558L151.441 174.427L151.857 174.492C151.831 174.709 151.745 174.917 151.597 175.116C151.459 175.315 151.277 175.493 151.051 175.649C150.826 175.796 150.566 175.913 150.271 176C149.985 176.095 149.682 176.143 149.361 176.143ZM149.894 174.414C150.215 174.414 150.492 174.336 150.726 174.18C150.96 174.024 151.138 173.807 151.259 173.53C151.389 173.253 151.454 172.928 151.454 172.555C151.454 172.174 151.389 171.844 151.259 171.567C151.138 171.29 150.96 171.073 150.726 170.917C150.492 170.761 150.215 170.683 149.894 170.683C149.574 170.683 149.296 170.761 149.062 170.917C148.837 171.073 148.659 171.29 148.529 171.567C148.399 171.844 148.334 172.174 148.334 172.555C148.334 172.928 148.399 173.253 148.529 173.53C148.659 173.807 148.837 174.024 149.062 174.18C149.296 174.336 149.574 174.414 149.894 174.414Z" fill="#A1ADBA"/>
<mask id="path-10-inside-4_27_148" fill="white">
<path d="M179 0H239V137H179V0Z"/>
</mask>
<path d="M179 0H239V137H179V0Z" fill="#2E363D"/>
<path d="M179 0V2H239V0V-2H179V0Z" fill="#757575" mask="url(#path-10-inside-4_27_148)"/>
<path d="M180.144 176V166.9H186.488V168.785H182.289V174.115H186.618V176H180.144ZM181.184 172.269V170.475H185.903V172.269H181.184ZM192.553 176L191.084 173.777L190.408 172.828L187.678 169.097H190.174L191.591 171.216L192.332 172.23L195.023 176H192.553ZM187.613 176L190.395 172.126L191.513 173.465L190.07 176H187.613ZM192.176 172.997L191.071 171.671L192.436 169.097H194.893L192.176 172.997ZM198.821 176.13C198.154 176.13 197.556 175.974 197.027 175.662C196.498 175.35 196.078 174.925 195.766 174.388C195.463 173.842 195.311 173.227 195.311 172.542C195.311 171.857 195.463 171.246 195.766 170.709C196.078 170.163 196.498 169.734 197.027 169.422C197.556 169.11 198.154 168.954 198.821 168.954C199.436 168.954 200 169.062 200.511 169.279C201.031 169.496 201.443 169.799 201.746 170.189L200.615 171.541C200.494 171.402 200.351 171.272 200.186 171.151C200.021 171.03 199.839 170.934 199.64 170.865C199.441 170.796 199.233 170.761 199.016 170.761C198.687 170.761 198.396 170.839 198.145 170.995C197.894 171.142 197.699 171.35 197.56 171.619C197.421 171.888 197.352 172.195 197.352 172.542C197.352 172.871 197.421 173.17 197.56 173.439C197.707 173.708 197.907 173.92 198.158 174.076C198.409 174.232 198.695 174.31 199.016 174.31C199.241 174.31 199.449 174.284 199.64 174.232C199.831 174.171 200.004 174.085 200.16 173.972C200.325 173.859 200.476 173.721 200.615 173.556L201.733 174.921C201.438 175.294 201.027 175.588 200.498 175.805C199.978 176.022 199.419 176.13 198.821 176.13ZM206.165 176.13C205.402 176.13 204.739 175.978 204.176 175.675C203.613 175.363 203.175 174.943 202.863 174.414C202.551 173.877 202.395 173.266 202.395 172.581C202.395 172.052 202.482 171.567 202.655 171.125C202.828 170.683 203.071 170.302 203.383 169.981C203.695 169.652 204.063 169.4 204.488 169.227C204.921 169.045 205.394 168.954 205.905 168.954C206.39 168.954 206.832 169.041 207.231 169.214C207.638 169.387 207.989 169.63 208.284 169.942C208.579 170.254 208.804 170.622 208.96 171.047C209.116 171.472 209.185 171.935 209.168 172.438L209.155 172.997H203.656L203.357 171.827H207.465L207.244 172.074V171.814C207.227 171.597 207.157 171.407 207.036 171.242C206.923 171.069 206.772 170.934 206.581 170.839C206.39 170.744 206.174 170.696 205.931 170.696C205.593 170.696 205.303 170.765 205.06 170.904C204.826 171.034 204.648 171.229 204.527 171.489C204.406 171.74 204.345 172.052 204.345 172.425C204.345 172.806 204.423 173.14 204.579 173.426C204.744 173.703 204.978 173.92 205.281 174.076C205.593 174.232 205.961 174.31 206.386 174.31C206.681 174.31 206.941 174.267 207.166 174.18C207.4 174.093 207.651 173.946 207.92 173.738L208.895 175.116C208.626 175.35 208.34 175.541 208.037 175.688C207.734 175.835 207.422 175.944 207.101 176.013C206.789 176.091 206.477 176.13 206.165 176.13ZM210.506 176V166.38H212.586V176H210.506ZM214.455 176V166.38H216.535V176H214.455ZM221.552 176.13C220.789 176.13 220.126 175.978 219.563 175.675C219 175.363 218.562 174.943 218.25 174.414C217.938 173.877 217.782 173.266 217.782 172.581C217.782 172.052 217.869 171.567 218.042 171.125C218.215 170.683 218.458 170.302 218.77 169.981C219.082 169.652 219.45 169.4 219.875 169.227C220.308 169.045 220.781 168.954 221.292 168.954C221.777 168.954 222.219 169.041 222.618 169.214C223.025 169.387 223.376 169.63 223.671 169.942C223.966 170.254 224.191 170.622 224.347 171.047C224.503 171.472 224.572 171.935 224.555 172.438L224.542 172.997H219.043L218.744 171.827H222.852L222.631 172.074V171.814C222.614 171.597 222.544 171.407 222.423 171.242C222.31 171.069 222.159 170.934 221.968 170.839C221.777 170.744 221.561 170.696 221.318 170.696C220.98 170.696 220.69 170.765 220.447 170.904C220.213 171.034 220.035 171.229 219.914 171.489C219.793 171.74 219.732 172.052 219.732 172.425C219.732 172.806 219.81 173.14 219.966 173.426C220.131 173.703 220.365 173.92 220.668 174.076C220.98 174.232 221.348 174.31 221.773 174.31C222.068 174.31 222.328 174.267 222.553 174.18C222.787 174.093 223.038 173.946 223.307 173.738L224.282 175.116C224.013 175.35 223.727 175.541 223.424 175.688C223.121 175.835 222.809 175.944 222.488 176.013C222.176 176.091 221.864 176.13 221.552 176.13ZM225.88 176V169.097H227.856L227.921 170.501L227.505 170.657C227.6 170.345 227.769 170.063 228.012 169.812C228.263 169.552 228.562 169.344 228.909 169.188C229.256 169.032 229.62 168.954 230.001 168.954C230.521 168.954 230.959 169.062 231.314 169.279C231.669 169.487 231.938 169.803 232.12 170.228C232.302 170.644 232.393 171.155 232.393 171.762V176H230.3V171.931C230.3 171.654 230.261 171.424 230.183 171.242C230.105 171.06 229.984 170.926 229.819 170.839C229.663 170.744 229.468 170.7 229.234 170.709C229.052 170.709 228.883 170.739 228.727 170.8C228.571 170.852 228.437 170.934 228.324 171.047C228.211 171.151 228.12 171.272 228.051 171.411C227.99 171.55 227.96 171.701 227.96 171.866V176H226.933C226.69 176 226.482 176 226.309 176C226.136 176 225.993 176 225.88 176ZM234.704 176V167.355H236.784V176H234.704ZM233.482 170.917V169.097H238.123V170.917H233.482Z" fill="#A1ADBA"/>
</svg>
