<svg width="456" height="232" viewBox="0 0 456 232" fill="none" xmlns="http://www.w3.org/2000/svg">
<g clip-path="url(#clip0_27_116)">
<path fill-rule="evenodd" clip-rule="evenodd" d="M2.86192 119.983C20.1802 119.983 20.1802 36.0335 37.4986 36.0335C54.8168 36.0335 54.8168 55.113 72.1352 55.113C89.4535 55.113 89.4535 104.72 106.772 104.72C124.09 104.72 124.09 47.4812 141.409 47.4812C158.727 47.4812 158.727 112.351 176.045 112.351C193.363 112.351 193.363 74.1925 210.682 74.1925C228 74.1925 228 58.9289 245.318 58.9289C262.637 58.9289 262.637 131.431 279.955 131.431C297.273 131.431 297.273 158.142 314.591 158.142C331.91 158.142 331.91 16.954 349.228 16.954C366.547 16.954 366.547 93.272 383.865 93.272C401.183 93.272 401.183 139.063 418.501 139.063C435.82 139.063 435.82 39.8494 453.138 39.8494V158.142H314.591H2.86192V119.983V119.983Z" fill="url(#paint0_linear_27_116)"/>
<path d="M2.86192 119.983C20.1802 119.983 20.1802 36.0335 37.4986 36.0335C54.8168 36.0335 54.8168 55.113 72.1352 55.113C89.4535 55.113 89.4535 104.72 106.772 104.72C124.09 104.72 124.09 47.4812 141.409 47.4812C158.727 47.4812 158.727 112.351 176.045 112.351C193.363 112.351 193.363 74.1925 210.682 74.1925C228 74.1925 228 58.9289 245.318 58.9289C262.637 58.9289 262.637 131.431 279.955 131.431C297.273 131.431 297.273 158.142 314.591 158.142C331.91 158.142 331.91 16.954 349.228 16.954C366.547 16.954 366.547 93.272 383.865 93.272C401.183 93.272 401.183 139.063 418.501 139.063C435.82 139.063 435.82 39.8494 453.138 39.8494" stroke="#A1ADBA" stroke-width="3"/>
</g>
<path d="M1.144 211V201.9H3.12L6.435 207.295L5.018 207.282L8.372 201.9H10.27V211H8.125V208.166C8.125 207.386 8.14233 206.684 8.177 206.06C8.22033 205.436 8.28967 204.816 8.385 204.201L8.632 204.877L6.11 208.79H5.252L2.782 204.903L3.029 204.201C3.12433 204.782 3.18933 205.38 3.224 205.995C3.26733 206.602 3.289 207.325 3.289 208.166V211H1.144ZM15.5861 211.13C14.8668 211.13 14.2254 210.974 13.6621 210.662C13.1074 210.35 12.6654 209.925 12.3361 209.388C12.0154 208.851 11.8551 208.235 11.8551 207.542C11.8551 206.849 12.0154 206.233 12.3361 205.696C12.6654 205.159 13.1074 204.734 13.6621 204.422C14.2254 204.11 14.8668 203.954 15.5861 203.954C16.3054 203.954 16.9424 204.11 17.4971 204.422C18.0604 204.734 18.5024 205.159 18.8231 205.696C19.1438 206.233 19.3041 206.849 19.3041 207.542C19.3041 208.235 19.1438 208.851 18.8231 209.388C18.5024 209.925 18.0604 210.35 17.4971 210.662C16.9424 210.974 16.3054 211.13 15.5861 211.13ZM15.5861 209.336C15.8981 209.336 16.1754 209.258 16.4181 209.102C16.6608 208.946 16.8514 208.734 16.9901 208.465C17.1288 208.196 17.1938 207.889 17.1851 207.542C17.1938 207.195 17.1288 206.888 16.9901 206.619C16.8514 206.342 16.6608 206.125 16.4181 205.969C16.1754 205.813 15.8981 205.735 15.5861 205.735C15.2741 205.735 14.9924 205.813 14.7411 205.969C14.4984 206.125 14.3078 206.342 14.1691 206.619C14.0304 206.888 13.9654 207.195 13.9741 207.542C13.9654 207.889 14.0304 208.196 14.1691 208.465C14.3078 208.734 14.4984 208.946 14.7411 209.102C14.9924 209.258 15.2741 209.336 15.5861 209.336ZM20.6642 211V204.097H22.6402L22.7052 205.501L22.2892 205.657C22.3845 205.345 22.5535 205.063 22.7962 204.812C23.0475 204.552 23.3465 204.344 23.6932 204.188C24.0399 204.032 24.4039 203.954 24.7852 203.954C25.3052 203.954 25.7429 204.062 26.0982 204.279C26.4535 204.487 26.7222 204.803 26.9042 205.228C27.0862 205.644 27.1772 206.155 27.1772 206.762V211H25.0842V206.931C25.0842 206.654 25.0452 206.424 24.9672 206.242C24.8892 206.06 24.7679 205.926 24.6032 205.839C24.4472 205.744 24.2522 205.7 24.0182 205.709C23.8362 205.709 23.6672 205.739 23.5112 205.8C23.3552 205.852 23.2209 205.934 23.1082 206.047C22.9955 206.151 22.9045 206.272 22.8352 206.411C22.7745 206.55 22.7442 206.701 22.7442 206.866V211H21.7172C21.4745 211 21.2665 211 21.0932 211C20.9199 211 20.7769 211 20.6642 211Z" fill="#A1ADBA"/>
<path d="M78.4534 211V203.85H75.7494V201.9H83.4324V203.85H80.6634V211H78.4534ZM85.833 211.143C85.3217 211.143 84.884 211.035 84.52 210.818C84.1647 210.593 83.8873 210.272 83.688 209.856C83.4973 209.44 83.402 208.942 83.402 208.361V204.097H85.495V208.075C85.495 208.352 85.5383 208.591 85.625 208.79C85.7117 208.989 85.8417 209.145 86.015 209.258C86.1883 209.362 86.3963 209.414 86.639 209.414C86.821 209.414 86.9857 209.384 87.133 209.323C87.289 209.262 87.419 209.18 87.523 209.076C87.6357 208.963 87.7223 208.838 87.783 208.699C87.8437 208.552 87.874 208.391 87.874 208.218V204.097H89.967V211H88.004L87.913 209.583L88.303 209.427C88.199 209.756 88.0257 210.051 87.783 210.311C87.5403 210.562 87.25 210.766 86.912 210.922C86.574 211.069 86.2143 211.143 85.833 211.143ZM95.1098 211.13C94.3472 211.13 93.6842 210.978 93.1208 210.675C92.5575 210.363 92.1198 209.943 91.8078 209.414C91.4958 208.877 91.3398 208.266 91.3398 207.581C91.3398 207.052 91.4265 206.567 91.5998 206.125C91.7732 205.683 92.0158 205.302 92.3278 204.981C92.6398 204.652 93.0082 204.4 93.4328 204.227C93.8662 204.045 94.3385 203.954 94.8498 203.954C95.3352 203.954 95.7772 204.041 96.1758 204.214C96.5832 204.387 96.9342 204.63 97.2288 204.942C97.5235 205.254 97.7488 205.622 97.9048 206.047C98.0608 206.472 98.1302 206.935 98.1128 207.438L98.0998 207.997H92.6008L92.3018 206.827H96.4098L96.1888 207.074V206.814C96.1715 206.597 96.1022 206.407 95.9808 206.242C95.8682 206.069 95.7165 205.934 95.5258 205.839C95.3352 205.744 95.1185 205.696 94.8758 205.696C94.5378 205.696 94.2475 205.765 94.0048 205.904C93.7708 206.034 93.5932 206.229 93.4718 206.489C93.3505 206.74 93.2898 207.052 93.2898 207.425C93.2898 207.806 93.3678 208.14 93.5238 208.426C93.6885 208.703 93.9225 208.92 94.2258 209.076C94.5378 209.232 94.9062 209.31 95.3308 209.31C95.6255 209.31 95.8855 209.267 96.1108 209.18C96.3448 209.093 96.5962 208.946 96.8648 208.738L97.8398 210.116C97.5712 210.35 97.2852 210.541 96.9818 210.688C96.6785 210.835 96.3665 210.944 96.0458 211.013C95.7338 211.091 95.4218 211.13 95.1098 211.13Z" fill="#A1ADBA"/>
<path d="M149.449 211L146.719 201.9H148.968L150.333 206.684C150.393 206.901 150.445 207.122 150.489 207.347C150.541 207.564 150.58 207.772 150.606 207.971C150.64 208.17 150.666 208.357 150.684 208.53C150.701 208.695 150.718 208.833 150.736 208.946H150.45C150.502 208.625 150.545 208.339 150.58 208.088C150.623 207.837 150.671 207.603 150.723 207.386C150.775 207.161 150.84 206.927 150.918 206.684L152.27 203.083H154.038L155.364 206.684C155.468 206.97 155.554 207.239 155.624 207.49C155.693 207.741 155.745 207.984 155.78 208.218C155.823 208.443 155.858 208.669 155.884 208.894L155.624 208.933C155.641 208.777 155.654 208.634 155.663 208.504C155.671 208.365 155.68 208.235 155.689 208.114C155.706 207.984 155.723 207.85 155.741 207.711C155.758 207.572 155.784 207.421 155.819 207.256C155.853 207.083 155.901 206.888 155.962 206.671L157.314 201.9H159.511L156.781 211H155.091L152.933 205.761L153.18 205.787L151.191 211H149.449ZM163.46 211.13C162.697 211.13 162.034 210.978 161.471 210.675C160.907 210.363 160.47 209.943 160.158 209.414C159.846 208.877 159.69 208.266 159.69 207.581C159.69 207.052 159.776 206.567 159.95 206.125C160.123 205.683 160.366 205.302 160.678 204.981C160.99 204.652 161.358 204.4 161.783 204.227C162.216 204.045 162.688 203.954 163.2 203.954C163.685 203.954 164.127 204.041 164.526 204.214C164.933 204.387 165.284 204.63 165.579 204.942C165.873 205.254 166.099 205.622 166.255 206.047C166.411 206.472 166.48 206.935 166.463 207.438L166.45 207.997H160.951L160.652 206.827H164.76L164.539 207.074V206.814C164.521 206.597 164.452 206.407 164.331 206.242C164.218 206.069 164.066 205.934 163.876 205.839C163.685 205.744 163.468 205.696 163.226 205.696C162.888 205.696 162.597 205.765 162.355 205.904C162.121 206.034 161.943 206.229 161.822 206.489C161.7 206.74 161.64 207.052 161.64 207.425C161.64 207.806 161.718 208.14 161.874 208.426C162.038 208.703 162.272 208.92 162.576 209.076C162.888 209.232 163.256 209.31 163.681 209.31C163.975 209.31 164.235 209.267 164.461 209.18C164.695 209.093 164.946 208.946 165.215 208.738L166.19 210.116C165.921 210.35 165.635 210.541 165.332 210.688C165.028 210.835 164.716 210.944 164.396 211.013C164.084 211.091 163.772 211.13 163.46 211.13ZM170.401 211.143C169.803 211.143 169.27 210.991 168.802 210.688C168.343 210.376 167.979 209.951 167.71 209.414C167.441 208.868 167.307 208.248 167.307 207.555C167.307 206.862 167.441 206.246 167.71 205.709C167.979 205.163 168.347 204.734 168.815 204.422C169.283 204.11 169.82 203.954 170.427 203.954C170.739 203.954 171.038 204.002 171.324 204.097C171.61 204.192 171.87 204.322 172.104 204.487C172.338 204.652 172.529 204.842 172.676 205.059C172.823 205.267 172.91 205.484 172.936 205.709L172.442 205.826V201.38H174.535V211H172.598L172.481 209.427L172.897 209.492C172.871 209.709 172.784 209.917 172.637 210.116C172.498 210.315 172.316 210.493 172.091 210.649C171.866 210.796 171.606 210.913 171.311 211C171.025 211.095 170.722 211.143 170.401 211.143ZM170.934 209.414C171.255 209.414 171.532 209.336 171.766 209.18C172 209.024 172.178 208.807 172.299 208.53C172.429 208.253 172.494 207.928 172.494 207.555C172.494 207.174 172.429 206.844 172.299 206.567C172.178 206.29 172 206.073 171.766 205.917C171.532 205.761 171.255 205.683 170.934 205.683C170.613 205.683 170.336 205.761 170.102 205.917C169.877 206.073 169.699 206.29 169.569 206.567C169.439 206.844 169.374 207.174 169.374 207.555C169.374 207.928 169.439 208.253 169.569 208.53C169.699 208.807 169.877 209.024 170.102 209.18C170.336 209.336 170.613 209.414 170.934 209.414Z" fill="#A1ADBA"/>
<path d="M226.12 211V203.85H223.416V201.9H231.099V203.85H228.33V211H226.12ZM232.442 211V201.38H234.483V205.501L234.067 205.657C234.162 205.345 234.331 205.063 234.574 204.812C234.825 204.552 235.124 204.344 235.471 204.188C235.817 204.032 236.181 203.954 236.563 203.954C237.083 203.954 237.52 204.062 237.876 204.279C238.231 204.487 238.5 204.803 238.682 205.228C238.864 205.644 238.955 206.155 238.955 206.762V211H236.862V206.931C236.862 206.654 236.823 206.424 236.745 206.242C236.667 206.06 236.545 205.926 236.381 205.839C236.225 205.744 236.03 205.7 235.796 205.709C235.614 205.709 235.445 205.739 235.289 205.8C235.133 205.852 234.998 205.934 234.886 206.047C234.773 206.151 234.682 206.272 234.613 206.411C234.552 206.55 234.522 206.701 234.522 206.866V211H233.495C233.252 211 233.044 211 232.871 211C232.697 211 232.554 211 232.442 211ZM243.047 211.143C242.535 211.143 242.098 211.035 241.734 210.818C241.378 210.593 241.101 210.272 240.902 209.856C240.711 209.44 240.616 208.942 240.616 208.361V204.097H242.709V208.075C242.709 208.352 242.752 208.591 242.839 208.79C242.925 208.989 243.055 209.145 243.229 209.258C243.402 209.362 243.61 209.414 243.853 209.414C244.035 209.414 244.199 209.384 244.347 209.323C244.503 209.262 244.633 209.18 244.737 209.076C244.849 208.963 244.936 208.838 244.997 208.699C245.057 208.552 245.088 208.391 245.088 208.218V204.097H247.181V211H245.218L245.127 209.583L245.517 209.427C245.413 209.756 245.239 210.051 244.997 210.311C244.754 210.562 244.464 210.766 244.126 210.922C243.788 211.069 243.428 211.143 243.047 211.143Z" fill="#A1ADBA"/>
<path d="M297.477 211V201.9H299.687V211H297.477ZM298.504 207.516V205.67H303.21V207.516H298.504ZM298.504 203.85V201.9H303.743V203.85H298.504ZM305.178 211V204.097H307.154L307.245 206.346L306.855 205.917C306.959 205.544 307.128 205.211 307.362 204.916C307.605 204.621 307.886 204.387 308.207 204.214C308.528 204.041 308.87 203.954 309.234 203.954C309.39 203.954 309.533 203.967 309.663 203.993C309.802 204.019 309.927 204.049 310.04 204.084L309.468 206.385C309.373 206.324 309.243 206.277 309.078 206.242C308.922 206.199 308.757 206.177 308.584 206.177C308.393 206.177 308.216 206.212 308.051 206.281C307.886 206.342 307.748 206.433 307.635 206.554C307.522 206.675 307.431 206.818 307.362 206.983C307.301 207.148 307.271 207.334 307.271 207.542V211H305.178ZM311.211 211V204.097H313.291V211H311.211ZM312.251 202.732C311.861 202.732 311.553 202.641 311.328 202.459C311.111 202.268 311.003 202 311.003 201.653C311.003 201.341 311.116 201.085 311.341 200.886C311.566 200.687 311.87 200.587 312.251 200.587C312.641 200.587 312.944 200.682 313.161 200.873C313.378 201.055 313.486 201.315 313.486 201.653C313.486 201.974 313.373 202.234 313.148 202.433C312.931 202.632 312.632 202.732 312.251 202.732Z" fill="#A1ADBA"/>
<path d="M365.827 211.13C365.229 211.13 364.687 211.061 364.202 210.922C363.725 210.775 363.3 210.567 362.928 210.298C362.555 210.021 362.221 209.696 361.927 209.323L363.266 207.802C363.699 208.383 364.132 208.773 364.566 208.972C365.008 209.171 365.463 209.271 365.931 209.271C366.165 209.271 366.377 209.241 366.568 209.18C366.758 209.119 366.906 209.033 367.01 208.92C367.114 208.799 367.166 208.651 367.166 208.478C367.166 208.348 367.131 208.231 367.062 208.127C367.001 208.023 366.914 207.932 366.802 207.854C366.689 207.776 366.555 207.707 366.399 207.646C366.243 207.577 366.078 207.52 365.905 207.477C365.731 207.425 365.554 207.382 365.372 207.347C364.869 207.234 364.431 207.096 364.059 206.931C363.686 206.766 363.374 206.567 363.123 206.333C362.88 206.09 362.698 205.817 362.577 205.514C362.455 205.202 362.395 204.855 362.395 204.474C362.395 204.067 362.486 203.694 362.668 203.356C362.858 203.009 363.11 202.715 363.422 202.472C363.742 202.221 364.111 202.03 364.527 201.9C364.943 201.761 365.376 201.692 365.827 201.692C366.425 201.692 366.936 201.757 367.361 201.887C367.794 202.008 368.162 202.186 368.466 202.42C368.778 202.654 369.042 202.936 369.259 203.265L367.894 204.578C367.712 204.353 367.512 204.166 367.296 204.019C367.088 203.872 366.862 203.759 366.62 203.681C366.386 203.603 366.143 203.564 365.892 203.564C365.632 203.564 365.406 203.599 365.216 203.668C365.034 203.729 364.891 203.82 364.787 203.941C364.683 204.054 364.631 204.192 364.631 204.357C364.631 204.504 364.674 204.63 364.761 204.734C364.847 204.838 364.964 204.933 365.112 205.02C365.259 205.098 365.428 205.167 365.619 205.228C365.809 205.28 366.009 205.323 366.217 205.358C366.693 205.453 367.122 205.579 367.504 205.735C367.894 205.891 368.227 206.082 368.505 206.307C368.791 206.532 369.007 206.801 369.155 207.113C369.311 207.416 369.389 207.772 369.389 208.179C369.389 208.812 369.233 209.349 368.921 209.791C368.617 210.224 368.197 210.558 367.66 210.792C367.131 211.017 366.52 211.13 365.827 211.13ZM373.377 211.117C372.796 211.117 372.276 210.965 371.817 210.662C371.366 210.35 371.006 209.925 370.738 209.388C370.469 208.842 370.335 208.227 370.335 207.542C370.335 206.84 370.469 206.22 370.738 205.683C371.006 205.146 371.375 204.725 371.843 204.422C372.311 204.11 372.844 203.954 373.442 203.954C373.771 203.954 374.07 204.002 374.339 204.097C374.616 204.192 374.859 204.327 375.067 204.5C375.275 204.665 375.452 204.86 375.6 205.085C375.747 205.302 375.855 205.536 375.925 205.787L375.496 205.735V204.097H377.563V211H375.457V209.336L375.925 209.323C375.855 209.566 375.743 209.795 375.587 210.012C375.431 210.229 375.24 210.419 375.015 210.584C374.789 210.749 374.538 210.879 374.261 210.974C373.983 211.069 373.689 211.117 373.377 211.117ZM373.949 209.362C374.269 209.362 374.547 209.288 374.781 209.141C375.015 208.994 375.197 208.786 375.327 208.517C375.457 208.24 375.522 207.915 375.522 207.542C375.522 207.169 375.457 206.849 375.327 206.58C375.197 206.303 375.015 206.09 374.781 205.943C374.547 205.787 374.269 205.709 373.949 205.709C373.637 205.709 373.364 205.787 373.13 205.943C372.904 206.09 372.727 206.303 372.597 206.58C372.467 206.849 372.402 207.169 372.402 207.542C372.402 207.915 372.467 208.24 372.597 208.517C372.727 208.786 372.904 208.994 373.13 209.141C373.364 209.288 373.637 209.362 373.949 209.362ZM379.97 211V202.355H382.05V211H379.97ZM378.748 205.917V204.097H383.389V205.917H378.748Z" fill="#A1ADBA"/>
<path d="M435.16 211.13C434.562 211.13 434.02 211.061 433.535 210.922C433.058 210.775 432.634 210.567 432.261 210.298C431.888 210.021 431.555 209.696 431.26 209.323L432.599 207.802C433.032 208.383 433.466 208.773 433.899 208.972C434.341 209.171 434.796 209.271 435.264 209.271C435.498 209.271 435.71 209.241 435.901 209.18C436.092 209.119 436.239 209.033 436.343 208.92C436.447 208.799 436.499 208.651 436.499 208.478C436.499 208.348 436.464 208.231 436.395 208.127C436.334 208.023 436.248 207.932 436.135 207.854C436.022 207.776 435.888 207.707 435.732 207.646C435.576 207.577 435.411 207.52 435.238 207.477C435.065 207.425 434.887 207.382 434.705 207.347C434.202 207.234 433.765 207.096 433.392 206.931C433.019 206.766 432.707 206.567 432.456 206.333C432.213 206.09 432.031 205.817 431.91 205.514C431.789 205.202 431.728 204.855 431.728 204.474C431.728 204.067 431.819 203.694 432.001 203.356C432.192 203.009 432.443 202.715 432.755 202.472C433.076 202.221 433.444 202.03 433.86 201.9C434.276 201.761 434.709 201.692 435.16 201.692C435.758 201.692 436.269 201.757 436.694 201.887C437.127 202.008 437.496 202.186 437.799 202.42C438.111 202.654 438.375 202.936 438.592 203.265L437.227 204.578C437.045 204.353 436.846 204.166 436.629 204.019C436.421 203.872 436.196 203.759 435.953 203.681C435.719 203.603 435.476 203.564 435.225 203.564C434.965 203.564 434.74 203.599 434.549 203.668C434.367 203.729 434.224 203.82 434.12 203.941C434.016 204.054 433.964 204.192 433.964 204.357C433.964 204.504 434.007 204.63 434.094 204.734C434.181 204.838 434.298 204.933 434.445 205.02C434.592 205.098 434.761 205.167 434.952 205.228C435.143 205.28 435.342 205.323 435.55 205.358C436.027 205.453 436.456 205.579 436.837 205.735C437.227 205.891 437.561 206.082 437.838 206.307C438.124 206.532 438.341 206.801 438.488 207.113C438.644 207.416 438.722 207.772 438.722 208.179C438.722 208.812 438.566 209.349 438.254 209.791C437.951 210.224 437.53 210.558 436.993 210.792C436.464 211.017 435.853 211.13 435.16 211.13ZM442.515 211.143C442.004 211.143 441.566 211.035 441.202 210.818C440.847 210.593 440.57 210.272 440.37 209.856C440.18 209.44 440.084 208.942 440.084 208.361V204.097H442.177V208.075C442.177 208.352 442.221 208.591 442.307 208.79C442.394 208.989 442.524 209.145 442.697 209.258C442.871 209.362 443.079 209.414 443.321 209.414C443.503 209.414 443.668 209.384 443.815 209.323C443.971 209.262 444.101 209.18 444.205 209.076C444.318 208.963 444.405 208.838 444.465 208.699C444.526 208.552 444.556 208.391 444.556 208.218V204.097H446.649V211H444.686L444.595 209.583L444.985 209.427C444.881 209.756 444.708 210.051 444.465 210.311C444.223 210.562 443.932 210.766 443.594 210.922C443.256 211.069 442.897 211.143 442.515 211.143ZM448.503 211V204.097H450.479L450.544 205.501L450.128 205.657C450.223 205.345 450.392 205.063 450.635 204.812C450.886 204.552 451.185 204.344 451.532 204.188C451.879 204.032 452.243 203.954 452.624 203.954C453.144 203.954 453.582 204.062 453.937 204.279C454.292 204.487 454.561 204.803 454.743 205.228C454.925 205.644 455.016 206.155 455.016 206.762V211H452.923V206.931C452.923 206.654 452.884 206.424 452.806 206.242C452.728 206.06 452.607 205.926 452.442 205.839C452.286 205.744 452.091 205.7 451.857 205.709C451.675 205.709 451.506 205.739 451.35 205.8C451.194 205.852 451.06 205.934 450.947 206.047C450.834 206.151 450.743 206.272 450.674 206.411C450.613 206.55 450.583 206.701 450.583 206.866V211H449.556C449.313 211 449.105 211 448.932 211C448.759 211 448.616 211 448.503 211Z" fill="#A1ADBA"/>
<defs>
<linearGradient id="paint0_linear_27_116" x1="-228" y1="16" x2="-228" y2="164" gradientUnits="userSpaceOnUse">
<stop stop-color="#2E363D"/>
<stop offset="0.5" stop-color="#2E363D" stop-opacity="0"/>
</linearGradient>
<clipPath id="clip0_27_116">
<rect width="456" height="148" fill="white" transform="translate(0 16)"/>
</clipPath>
</defs>
</svg>
