<svg width="383" height="285" viewBox="0 0 383 285" fill="none" xmlns="http://www.w3.org/2000/svg">
<g filter="url(#filter0_d_1_49)">
<path fill-rule="evenodd" clip-rule="evenodd" d="M176.475 32.527C177.242 33.2933 177.763 34.2701 177.973 35.3334C178.184 36.3967 178.073 37.4985 177.656 38.4989C174.323 46.4994 172.612 55.0827 172.625 63.7499C172.625 81.1548 179.539 97.8467 191.846 110.154C204.153 122.461 220.845 129.375 238.25 129.375C246.917 129.387 255.501 127.677 263.501 124.344C264.501 123.927 265.602 123.817 266.664 124.027C267.726 124.237 268.702 124.758 269.469 125.523C270.235 126.288 270.756 127.264 270.968 128.326C271.179 129.388 271.07 130.489 270.654 131.49C264.836 145.44 255.019 157.357 242.44 165.739C229.862 174.122 215.084 178.594 199.969 178.594C157.684 178.594 123.406 144.323 123.406 102.031C123.406 70.1812 142.853 42.8812 170.51 31.3458C171.51 30.9303 172.61 30.8207 173.672 31.031C174.734 31.2413 175.709 31.7619 176.475 32.527Z" fill="url(#paint0_linear_1_49)"/>
</g>
<path fill-rule="evenodd" clip-rule="evenodd" d="M359.937 211.969C359.941 204.819 357.453 197.891 352.901 192.377C348.349 186.863 342.017 183.107 334.996 181.757C327.974 180.406 320.701 181.545 314.429 184.977C308.156 188.409 303.275 193.919 300.626 200.561C297.686 200.223 294.707 200.569 291.923 201.572C289.138 202.574 286.623 204.206 284.573 206.341C282.523 208.475 280.993 211.054 280.104 213.877C279.214 216.699 278.988 219.689 279.444 222.613C274.998 225.112 271.505 229.014 269.513 233.709C267.52 238.405 267.14 243.628 268.433 248.562C269.725 253.496 272.616 257.862 276.654 260.978C280.692 264.094 285.65 265.783 290.75 265.781H348.406C354.527 265.784 360.466 263.7 365.243 259.872C370.02 256.045 373.349 250.703 374.68 244.729C376.012 238.755 375.267 232.505 372.568 227.011C369.869 221.517 365.378 217.108 359.835 214.511C359.904 213.665 359.938 212.817 359.937 211.969Z" fill="url(#paint1_linear_1_49)"/>
<path fill-rule="evenodd" clip-rule="evenodd" d="M20.0625 44.4687C20.0594 38.2486 22.224 32.2219 26.184 27.4251C30.144 22.6284 35.6518 19.3617 41.7599 18.1868C47.8681 17.0119 54.1947 18.0024 59.6516 20.9879C65.1084 23.9733 69.3543 28.767 71.6588 34.5445C74.2165 34.2508 76.8075 34.5518 79.2297 35.424C81.652 36.2962 83.8401 37.716 85.6235 39.5728C87.4069 41.4295 88.7374 43.6731 89.5113 46.1285C90.2852 48.5839 90.4816 51.1849 90.0851 53.7287C93.9531 55.9024 96.9915 59.297 98.7248 63.3814C100.458 67.4658 100.789 72.0095 99.6644 76.3017C98.5402 80.5939 96.025 84.3924 92.5121 87.1028C88.9992 89.8132 84.687 91.2827 80.25 91.2812H30.0938C24.769 91.2837 19.6026 89.4706 15.4472 86.1411C11.2918 82.8116 8.39582 78.1647 7.23731 72.9675C6.0788 67.7703 6.72698 62.3335 9.07487 57.5543C11.4228 52.7751 15.33 48.9394 20.1517 46.6801C20.0918 45.9445 20.0621 45.2068 20.0625 44.4687Z" fill="url(#paint2_linear_1_49)"/>
<defs>
<filter id="filter0_d_1_49" x="89.4062" y="0.926819" width="215.666" height="215.667" filterUnits="userSpaceOnUse" color-interpolation-filters="sRGB">
<feFlood flood-opacity="0" result="BackgroundImageFix"/>
<feColorMatrix in="SourceAlpha" type="matrix" values="0 0 0 0 0 0 0 0 0 0 0 0 0 0 0 0 0 0 127 0" result="hardAlpha"/>
<feOffset dy="4"/>
<feGaussianBlur stdDeviation="17"/>
<feComposite in2="hardAlpha" operator="out"/>
<feColorMatrix type="matrix" values="0 0 0 0 0.701961 0 0 0 0 0.831373 0 0 0 0 0.988235 0 0 0 0.4 0"/>
<feBlend mode="normal" in2="BackgroundImageFix" result="effect1_dropShadow_1_49"/>
<feBlend mode="normal" in="SourceGraphic" in2="effect1_dropShadow_1_49" result="shape"/>
</filter>
<linearGradient id="paint0_linear_1_49" x1="197.239" y1="30.9268" x2="197.239" y2="178.594" gradientUnits="userSpaceOnUse">
<stop stop-color="#FFFBF1"/>
<stop offset="1" stop-color="#9BC8FF"/>
</linearGradient>
<linearGradient id="paint1_linear_1_49" x1="321.503" y1="181.203" x2="321.503" y2="265.781" gradientUnits="userSpaceOnUse">
<stop stop-color="#142147"/>
<stop offset="1" stop-color="#081027"/>
</linearGradient>
<linearGradient id="paint2_linear_1_49" x1="53.4978" y1="17.7053" x2="53.4978" y2="91.2812" gradientUnits="userSpaceOnUse">
<stop stop-color="#142147"/>
<stop offset="1" stop-color="#081027"/>
</linearGradient>
</defs>
</svg>
